<?xml version="1.0" encoding="UTF-8"?>
<svg id="Capa_2" xmlns="http://www.w3.org/2000/svg" xmlns:xlink="http://www.w3.org/1999/xlink" viewBox="0 0 484.1 211.84">
  <defs>
    <style>
      .cls-1 {
        fill: url(#Degradado_sin_nombre-2);
      }

      .cls-2 {
        fill: #010000;
      }

      .cls-3 {
        fill: url(#Degradado_sin_nombre);
      }
    </style>
    <linearGradient id="Degradado_sin_nombre" data-name="Degradado sin nombre" x1="399.94" y1="71.67" x2="484.1" y2="71.67" gradientUnits="userSpaceOnUse">
      <stop offset="0" stop-color="#fff"/>
      <stop offset="1" stop-color="#000"/>
    </linearGradient>
    <linearGradient id="Degradado_sin_nombre-2" data-name="Degradado sin nombre" x1="344.01" y1="48.31" x2="427.77" y2="48.31" xlink:href="#Degradado_sin_nombre"/>
  </defs>
  <g id="Capa_1-2" data-name="Capa_1">
    <g>
      <path class="cls-2" d="M387.11,29.19c-.73.2-1.47.44-2.15-.15.43-.35.86-.71,1.29-1.06.28.4.57.81.85,1.21Z"/>
      <g>
        <path d="M310.71,211.28c-23.81.05-42.24-18.24-42.28-41.94-.04-23.91,18.95-43.15,42.62-43.16,23.55-.01,42.86,19.19,42.74,42.5-.12,23.85-19.03,42.55-43.08,42.6ZM292.14,169.14c.07,12.15,7.8,20.28,19.19,20.19,11.29-.09,18.86-8.38,18.81-20.6-.05-11.87-8.17-20.47-19.23-20.38-11.01.09-18.84,8.76-18.78,20.79Z"/>
        <path d="M173.46,168.97c-.07,24.03-18.75,42.36-43.12,42.31-23.73-.04-42-18.44-41.95-42.24.05-23.9,19.12-42.97,42.85-42.86,23.68.11,42.28,18.96,42.21,42.79ZM112.13,168.55c-.04,12.71,7.37,20.8,19.05,20.78,11.27-.02,18.97-8.35,18.96-20.52,0-11.81-8.17-20.5-19.22-20.45-10.98.05-18.76,8.4-18.8,20.2Z"/>
        <path d="M371.91,182.65c2.16,0,4.34.12,6.49-.03,3.05-.2,4.69.9,5.96,3.91,2.58,6.1,14.57,8.38,19.6,4.07,3.25-2.79,2.91-7.42-.85-9.63-3.06-1.8-6.55-2.36-10.02-2.83-5.8-.78-11.46-1.98-16.74-4.68-8.76-4.48-12.99-11.75-12.89-21.4.1-9.96,4.18-17.98,13.61-22,13.31-5.68,26.66-5.27,39.37,1.99,6.38,3.65,10.21,9.4,11.57,16.7.61,3.27-.29,5.12-4.05,4.94-3.99-.18-7.99-.08-11.98-.1-3.57-.02-6.46-.51-8.54-4.35-2.1-3.87-10.51-4.57-14.1-1.96-3.65,2.65-3.13,8,1.18,9.54,3.26,1.17,6.79,1.57,10.2,2.31,4.38.96,8.86,1.63,13.13,2.95,9.33,2.89,15.66,8.65,16.57,18.99.95,10.7-2.29,19.79-12.02,24.94-14.45,7.64-29.46,7.74-44.08.28-7.35-3.74-11.58-10.24-13.27-18.4-.8-3.86.17-5.76,4.38-5.43,2.15.16,4.32.03,6.49.03,0,.05,0,.09,0,.14Z"/>
        <path d="M250.52,159.16c-2.5,0-5-.11-7.49.03-2.58.15-4.27-.74-5.74-3-4.04-6.2-9.98-8.49-17.23-7.52-7.53,1-12.4,5.33-14.91,12.33-5.15,14.37,3.59,28.36,17.62,28.46,6.66.05,11.64-2.88,14.68-8.6,1.51-2.84,3.36-3.71,6.32-3.62,4.82.15,9.66.21,14.48-.01,4.23-.2,4.83,1.64,3.68,5.16-4.99,15.2-15.19,24.81-30.82,28.21-19.38,4.22-38.56-5.32-46.93-23-8.43-17.8-3.5-39.98,11.57-52.09,22.45-18.03,57.04-8.34,65.85,18.35,1.24,3.77,1.05,5.75-3.59,5.34-2.48-.22-4.99-.04-7.49-.04Z"/>
        <path d="M70.55,159.17c-2,0-4.01-.13-5.99.03-3.4.27-5.72-.63-7.86-3.78-4.89-7.19-14.83-9.05-22.82-4.93-8.15,4.2-11.98,14.78-9.12,25.24,2.49,9.13,9.82,14.28,19.46,13.69,6-.37,10.5-3.28,13.2-8.51,1.45-2.81,3.32-3.76,6.32-3.66,4.82.16,9.66.22,14.48-.01,4.19-.21,4.88,1.57,3.72,5.12-4.55,14.02-13.77,23.4-27.91,27.55-20.57,6.04-42.06-4.15-50.51-23.64-8.47-19.54-1.19-42.99,16.72-53.89,22.34-13.6,52.09-3.6,61.03,20.52,2.11,5.7,1.76,6.23-4.23,6.26-2.16.01-4.33,0-6.49,0Z"/>
        <path class="cls-3" d="M432.98,23.28c27.87.09,47.25,15.25,50.58,38.05,2.7,18.48-4.93,33.44-18.16,45.88-5.65,5.31-12.6,8.62-19.35,12.23-2.24,1.2-3.36.68-4.17-1.48-.11-.31-.33-.58-.48-.88-2.32-4.6-6.74-9.38-6.38-13.77.37-4.48,7.76-4.86,11.68-7.71,5.75-4.19,10.65-8.96,13.81-15.46,8.19-16.87-1.77-34.32-20.53-35.93-9.33-.8-17.86,1.59-25.73,6.35-3.93,2.38-6.47,2.88-8.28-2.37-1.29-3.73-3.55-7.14-5.47-10.63-1-1.82-.76-2.87,1.19-3.93,10.79-5.86,21.92-10.51,31.27-10.35Z"/>
        <path class="cls-1" d="M393.81,96.61c-18.62-.14-34.52-6.12-43.96-23.19-9.85-17.83-6.55-35,4.74-51.15,7.34-10.5,17.86-16.73,29.21-21.88,2.04-.93,3.04-.14,3.88,1.65,1.92,4.07,3.79,8.16,5.96,12.09,1.66,3,.66,4.46-2.18,5.66-6.64,2.81-12.88,6.25-17.7,11.82-4.56,5.27-8.08,11.07-8.58,18.19-1.15,16.23,12.72,28.02,30.36,26.05,7.09-.79,13.57-3.3,19.73-6.69,2.98-1.64,4.9-1.41,6.15,1.99.63,1.71,1.67,3.26,2.43,4.92,5.25,11.38,6.74,8.65-5.4,14.63-7.7,3.79-15.95,5.77-24.66,5.9Z"/>
      </g>
    </g>
  </g>
</svg>