<?xml version="1.0" encoding="UTF-8"?>
<svg id="Capa_2" xmlns="http://www.w3.org/2000/svg" viewBox="0 0 1997.63 1808.43">
  <defs>
    <style>
      .cls-1 {
        fill: #fff;
      }
    </style>
  </defs>
  <g id="Capa_1-2" data-name="Capa_1">
    <path d="M524.69,1435.56h18.64v372.87h-70.58v-327.59c0-10.65,22.64-45.28,51.94-45.28ZM910.88,1518.12c-34.62,0-61.26,14.65-79.9,43.95v-126.51h-7.99c-34.62,0-53.27,18.64-62.59,34.62v-2.66,214.4c0,83.9,43.95,126.51,131.84,126.51,87.89-1.33,130.51-49.27,130.51-142.49s-37.29-145.15-111.86-147.82h0ZM889.57,1747.17c-39.95,0-59.93-29.3-58.59-85.23,2.66-54.6,21.31-81.23,59.93-81.23s57.26,26.63,59.93,81.23c0,57.26-21.31,85.23-61.26,85.23ZM1064.02,1661.94c2.66-90.56,46.61-141.16,141.16-141.16h21.31v73.24h-33.29c-39.95,0-57.26,25.3-57.26,66.58v146.49h-71.91v-145.15ZM1338.35,1735.18c11.99,10.65,27.97,15.98,49.27,15.98,14.65,0,27.97-4,38.62-11.99,10.65-7.99,17.31-15.98,19.98-23.97h66.58c-10.65,33.29-26.63,55.93-49.27,70.58s-47.94,21.31-79.9,21.31c-21.31,0-41.28-4-58.59-10.65-17.31-6.66-31.96-17.31-43.95-29.3-11.99-13.32-21.31-27.97-27.97-45.28-6.66-17.31-9.32-37.29-9.32-58.59,0-19.98,4-39.95,10.65-57.26,6.66-17.31,15.98-33.29,27.97-45.28,11.99-13.32,26.63-22.64,43.95-30.63,17.31-7.99,35.95-10.65,57.26-10.65,22.64,0,43.95,4,61.26,13.32,17.31,9.32,31.96,21.31,42.61,35.95s18.64,31.96,23.97,51.94c5.33,18.64,6.66,39.95,5.33,61.26h-198.42c2.66,25.3,9.32,42.61,19.98,53.27h0ZM1423.57,1591.36c-9.32-9.32-22.64-14.65-41.28-14.65-11.99,0-22.64,2.66-30.63,6.66-7.99,4-14.65,9.32-18.64,14.65-5.33,6.66-7.99,11.99-10.65,18.64-2.66,6.66-2.66,13.32-4,18.64h122.51c-1.33-19.98-7.99-34.62-17.31-43.95h0ZM619.24,1435.55h70.58v63.92h-70.58v-63.92ZM619.24,1531.44h70.58v275.66h-70.58v-275.66ZM1906.98,1287.74c-11.99,13.32-27.97,21.31-47.94,21.31s-35.95-7.99-47.94-21.31c-11.99-13.32-15.98-35.95-15.98-62.59,0-27.97,5.33-47.94,15.98-61.26,11.99-13.32,27.97-21.31,47.94-21.31s35.95,7.99,47.94,21.31,15.98,35.95,15.98,61.26-4,46.61-15.98,62.59ZM1962.91,1122.61c-21.31-27.97-57.26-43.95-103.87-43.95s-82.56,13.32-103.87,43.95c-21.31,27.97-34.62,62.59-34.62,101.21s11.99,74.57,34.62,101.21c21.31,27.97,57.26,42.61,103.87,42.61s82.56-13.32,103.87-42.61c21.31-27.97,34.62-62.59,34.62-101.21,1.33-37.29-10.65-71.91-34.62-101.21M1616.67,1287.74c-9.32,13.32-25.3,21.31-45.28,21.31s-35.95-7.99-43.95-21.31c-9.32-15.98-13.32-35.95-13.32-62.59,0-23.97,4-42.61,13.32-57.26,9.32-15.98,23.97-23.97,45.28-23.97,13.32,0,25.3,4,35.95,11.99,15.98,13.32,25.3,39.95,25.3,74.57-4,23.97-6.66,43.95-17.31,57.26h0ZM1699.23,997.43s-71.91-7.99-71.91,49.27v75.91c-7.99-11.99-17.31-21.31-31.96-30.63-11.99-7.99-27.97-9.32-43.95-9.32-35.95,0-63.92,13.32-86.56,39.95-21.31,25.3-31.96,63.92-31.96,111.86,0,39.95,9.32,74.57,31.96,97.21,21.31,25.3,63.92,35.95,101.21,35.95,131.84,0,129.17-111.86,129.17-111.86l4-258.35ZM1345,1254.44c0,23.97-7.99,39.95-19.98,49.27-13.32,7.99-27.97,13.32-42.61,13.32-9.32,0-17.31-1.33-23.97-7.99s-9.32-13.32-9.32-25.3c0-13.32,5.33-23.97,15.98-30.63,5.33-4,17.31-7.99,31.96-9.32l15.98-4c7.99-1.33,13.32-4,19.98-4,4-1.33,9.32-4,13.32-5.33l-1.33,23.97ZM1380.96,1098.64c-23.97-11.99-49.27-17.31-79.9-17.31-45.28,0-78.57,11.99-97.21,35.95-11.99,15.98-17.31,34.62-19.98,57.26h67.92c1.33-9.32,5.33-17.31,9.32-23.97,7.99-7.99,19.98-11.99,35.95-11.99s25.3,1.33,34.62,5.33c7.99,4,11.99,11.99,11.99,23.97,0,9.32-5.33,15.98-15.98,19.98-5.33,1.33-15.98,4-27.97,5.33l-23.97,1.33c-27.97,4-47.94,9.32-62.59,17.31-25.3,13.32-38.62,39.95-38.62,71.91,0,25.3,7.99,45.28,23.97,59.93,15.98,13.32,35.95,19.98,61.26,21.31,155.81,5.33,154.48-82.56,154.48-99.88v-101.21c1.33-29.3-9.32-53.27-33.29-65.25M1028.06,1142.58c17.31,0,30.63,5.33,39.95,15.98,5.33,7.99,9.32,17.31,9.32,27.97h75.91c-4-38.62-17.31-66.58-39.95-79.9-21.31-15.98-51.94-21.31-87.89-21.31-42.61,0-75.91,11.99-99.88,38.62-23.97,26.63-35.95,62.59-35.95,107.87,0,42.61,9.32,74.57,31.96,99.88,21.31,25.3,55.93,38.62,101.21,38.62s79.9-15.98,103.87-45.28c13.32-19.98,21.31-39.95,23.97-62.59h-75.91c-1.33,13.32-5.33,25.3-13.32,34.62-7.99,7.99-19.98,13.32-38.62,13.32-23.97,0-42.61-11.99-49.27-34.62-4-11.99-7.99-27.97-7.99-47.94s1.33-38.62,7.99-49.27c11.99-23.97,27.97-35.95,54.6-35.95M869.59,1082.66c-158.47,0-147.82,139.83-147.82,139.83v141.16h71.91v-131.84c0-21.31,1.33-38.62,7.99-47.94,9.32-17.31,27.97-27.97,57.26-27.97h7.99c4,0,7.99,0,11.99,1.33v-71.91h-5.33q-1.33-2.66-4-2.66M512.7,1155.9c9.32-9.32,23.97-15.98,42.61-15.98,15.98,0,30.63,4,42.61,13.32,11.98,9.32,17.31,23.97,17.31,42.61h-122.51c4-15.98,9.32-29.3,19.98-39.95ZM608.58,1287.74c-1.33,4-5.33,7.99-9.32,9.32-9.32,7.99-23.97,9.32-39.95,9.32s-27.97-1.33-38.62-9.32c-17.31-9.32-27.97-30.63-27.97-55.93h197.09c0-23.97,0-42.61-1.33-53.27-4-21.31-9.32-39.95-21.31-55.93-11.99-17.31-27.97-31.96-45.28-39.95s-39.95-11.99-63.92-11.99c-39.95,0-71.91,11.99-95.88,38.62-23.97,25.3-38.62,61.26-38.62,107.87,0,49.27,13.32,86.56,42.61,107.87,27.97,21.31,59.93,34.62,95.88,34.62,43.95,0,78.57-13.32,101.21-39.95,13.32-13.32,21.31-27.97,23.97-42.61l-78.57,1.33ZM392.85,1362.31h-66.58v-163.8c0-15.98-4-49.27-47.94-49.27-27.97,0-49.27,19.98-49.27,49.27v163.8h-66.58v-163.8c0-15.98-4-49.27-47.94-49.27-27.97,0-47.94,19.98-47.94,49.27v163.8H0v-162.47c0-67.92,43.95-119.85,113.19-119.85,34.62,0,62.59,13.32,82.56,38.62,19.98-23.97,47.94-38.62,82.56-38.62,71.91,0,113.19,49.27,113.19,119.85l1.33,162.47ZM1635.31,414.15C1635.31,186.44,1351.66,0,1001.43,0S367.55,186.44,367.55,414.15v23.97c0,242.37,247.69,438.13,633.88,438.13s633.88-195.76,633.88-438.13v-23.97Z"/>
    <path class="cls-1" d="M1612.67,414.15c0,214.4-273,388.85-608.58,388.85s-608.58-174.45-608.58-388.85S668.51,25.3,1004.09,25.3s608.58,174.45,608.58,388.85Z"/>
    <g>
      <path class="cls-1" d="M801.68,291.64s-6.66,6.66-2.66,11.99c9.32,11.99,38.62,18.64,69.25,11.99,17.31-4,41.28-22.64,62.59-39.95,23.97-18.64,47.94-38.62,71.91-45.28,25.3-7.99,41.28-4,51.94-1.33,11.99,4,25.3,11.99,47.94,27.97,41.28,30.63,209.07,177.11,238.37,202.42,22.64-10.65,126.51-54.6,267.67-86.56-11.99-74.57-57.26-143.82-126.51-199.75-95.88,39.95-214.4,61.26-330.26,5.33,0,0-62.59-29.3-125.18-27.97-91.89,2.66-130.51,41.28-173.12,83.9l-51.93,57.26Z"/>
      <path class="cls-1" d="M1334.35,475.41c-1.33-1.33-197.09-171.79-241.03-205.08-25.3-18.64-39.95-23.97-54.6-26.63-7.99-1.33-18.64,0-26.63,2.66-19.98,5.33-47.94,23.97-71.91,42.61-25.3,19.98-47.94,38.62-69.25,42.61-27.97,6.66-61.26-1.33-75.91-11.99-6.66-4-10.65-9.32-13.32-14.65-5.33-13.32,5.33-23.97,6.66-25.3l53.27-58.59,18.64-18.64c-17.31,2.66-33.29,6.66-49.27,10.65-19.98,5.33-38.62,10.65-57.26,10.65-7.99,0-50.6-6.66-58.59-9.32-49.27-13.32-91.89-26.63-155.81-55.93-75.91,57.26-127.84,127.84-142.49,206.41,10.65,2.66,29.3,7.99,35.95,9.32,173.12,38.62,226.39,78.57,237.04,86.56,10.65-11.99,25.3-18.64,42.61-18.64,18.64,0,35.95,9.32,46.61,23.97,9.32-7.99,23.97-14.65,41.28-14.65,7.99,0,15.98,1.33,25.3,4,19.98,6.66,29.3,19.98,34.62,31.96,6.66-2.66,14.65-5.33,23.97-5.33s18.64,2.66,29.3,6.66c31.96,13.32,37.29,45.28,34.62,69.25h6.66c38.62,0,69.25,30.63,69.25,69.25,0,11.99-2.66,22.64-7.99,31.96,10.65,5.33,35.95,18.64,59.93,15.98,18.64-2.66,25.3-7.99,27.97-11.99,1.33-2.66,4-5.33,1.33-7.99l-49.27-54.6s-7.99-7.99-5.33-10.65,7.99,1.33,11.99,4c25.3,21.31,54.6,51.94,54.6,51.94,0,0,2.66,4,13.32,6.66,9.32,1.33,26.63,0,38.62-9.32,2.66-2.66,6.66-5.33,7.99-7.99,11.99-15.98-1.33-31.96-1.33-31.96l-57.26-63.92s-7.99-7.99-5.33-10.65,7.99,1.33,11.99,4c18.64,14.65,43.95,41.28,67.92,65.25,5.33,4,26.63,17.31,54.6-1.33,17.31-11.99,21.31-25.3,19.98-35.95-1.33-13.32-11.99-23.97-11.99-23.97l-77.24-78.57s-7.99-6.66-5.33-10.65c2.66-2.66,7.99,1.33,11.99,4,25.3,21.31,91.89,82.56,91.89,82.56,1.33,0,23.97,17.31,53.27-1.33,10.65-6.66,17.31-15.98,17.31-27.97,1.33-17.31-13.32-29.3-13.32-29.3Z"/>
      <path class="cls-1" d="M957.48,575.29c-11.99,0-25.3,6.66-26.63,6.66s0-5.33,1.33-7.99,17.31-50.6-21.31-67.92c-29.3-13.32-47.94,1.33-53.27,7.99-1.33,1.33-2.66,1.33-2.66,0,0-7.99-4-31.96-30.63-39.95-37.29-11.99-59.93,14.65-66.58,23.97-2.66-21.31-19.98-37.29-42.61-37.29-23.97,0-42.61,18.64-42.61,42.61s18.64,42.61,42.61,42.61c11.99,0,21.31-4,29.3-11.99v1.33c-1.33,10.65-5.33,49.27,34.62,63.92,15.98,6.66,29.3,1.33,41.28-6.66,4-2.66,4-1.33,4,1.33-1.33,9.32,0,30.63,30.63,42.61,22.64,9.32,35.95,0,43.95-7.99,4-4,5.33-2.66,5.33,2.66,1.33,27.97,25.3,50.6,53.27,50.6s53.27-23.97,53.27-53.27-23.97-53.27-53.27-53.27h0Z"/>
    </g>
    <path d="M1342.34,455.44c-59.93-51.94-198.42-173.12-237.04-201.08-21.31-15.98-35.95-25.3-49.27-27.97-5.33-1.33-13.32-4-23.97-4-9.32,0-19.98,1.33-30.63,5.33-23.97,7.99-47.94,26.63-71.91,45.28l-1.33,1.33c-21.31,17.31-43.95,34.62-61.26,38.62-7.99,1.33-14.65,2.66-22.64,2.66-18.64,0-35.95-5.33-42.61-13.32-1.33-1.33,0-4,2.66-6.66l53.27-57.26c41.28-41.28,79.9-79.9,170.46-82.56h4c55.93,0,111.86,25.3,118.52,27.97,53.27,25.3,106.53,38.62,161.13,38.62s115.86-14.65,177.11-42.61c-6.66-5.33-14.65-11.99-21.31-17.31-54.6,23.97-105.2,34.62-155.81,34.62s-101.21-11.99-150.48-35.95c-2.66-1.33-63.92-30.63-129.17-30.63h-5.33c-75.91,1.33-118.52,27.97-146.49,51.94-27.97,0-51.94,7.99-73.24,13.32-18.64,5.33-35.95,9.32-51.94,9.32h-19.98c-18.64,0-111.86-22.64-185.1-51.94-7.99,5.33-14.65,10.65-22.64,15.98,77.24,31.96,171.79,55.93,201.08,58.59,7.99,0,17.31,1.33,26.63,1.33,19.98,0,38.62-5.33,58.59-10.65,11.99-2.66,23.97-6.66,35.95-9.32l-10.65,10.65-53.27,58.59c-4,4-13.32,15.98-7.99,29.3,2.66,5.33,7.99,10.65,14.65,15.98,13.32,7.99,35.95,14.65,57.26,14.65,7.99,0,15.98-1.33,22.64-2.66,22.64-5.33,46.61-23.97,70.58-43.95,19.98-15.98,47.94-35.95,69.25-42.61,6.66-1.33,13.32-2.66,19.98-2.66h5.33c14.65,1.33,27.97,6.66,53.27,25.3,43.95,33.29,239.7,203.75,241.03,205.08,0,0,11.99,10.65,11.99,29.3,0,9.32-6.66,18.64-15.98,25.3-7.99,5.33-17.31,7.99-25.3,7.99-13.32,0-22.64-6.66-22.64-6.66,0,0-67.92-61.26-91.89-82.56-4-4-7.99-6.66-11.99-6.66-2.66,0-4,1.33-5.33,2.66-4,5.33,0,11.99,5.33,15.98l78.57,78.57s9.32,9.32,10.65,21.31c0,13.32-5.33,23.97-18.64,31.96-9.32,6.66-18.64,9.32-27.97,9.32-11.99,0-19.98-5.33-22.64-6.66l-11.99-10.65c-19.98-19.98-41.28-41.28-57.26-53.27-4-2.66-7.99-6.66-11.99-6.66-1.33,0-4,0-5.33,2.66-1.33,1.33-2.66,5.33,1.33,11.99,1.33,2.66,4,4,4,4l57.26,63.92s11.99,14.65,1.33,26.63l-2.66,2.66-5.33,5.33c-9.32,7.99-22.64,9.32-27.97,9.32h-7.99c-5.33-1.33-9.32-2.66-11.99-5.33-2.66-4-31.96-31.96-55.93-51.94-2.66-2.66-6.66-5.33-10.65-5.33-1.33,0-4,1.33-5.33,2.66-4,5.33,2.66,13.32,5.33,15.98l49.27,53.27s0,1.33-1.33,4-7.99,7.99-25.3,10.65h-6.66c-18.64,0-37.29-9.32-47.94-14.65,4-9.32,6.66-19.98,6.66-30.63,0-39.95-31.96-71.91-71.91-71.91h-2.66c1.33-18.64-1.33-53.27-37.29-67.92-10.65-4-19.98-6.66-30.63-6.66-7.99,0-14.65,1.33-22.64,4-7.99-14.65-19.98-25.3-35.95-30.63-9.32-2.66-17.31-4-26.63-4-14.65,0-27.97,4-39.95,13.32-11.72-14.43-29.35-22.76-47.94-22.64-15.98,0-31.96,6.66-42.61,17.31-14.65-11.99-74.57-49.27-235.71-86.56-7.99-1.33-25.3-6.66-35.95-10.65-1.33,7.99-2.66,17.31-4,26.63,0,0,29.3,6.66,35.95,7.99,163.8,35.95,218.4,74.57,227.72,81.23-2.66,7.99-4,15.98-4,23.97,0,34.62,27.97,61.26,61.26,61.26,4,0,7.99,0,11.99-1.33,5.33,25.3,21.31,43.95,46.61,53.27,7.99,2.66,14.65,4,21.31,4,4,0,9.32,0,14.65-1.33,4,11.99,14.65,26.63,38.62,35.95,7.99,4,15.98,5.33,23.97,5.33,6.66,0,13.32-1.33,18.64-4,10.65,26.63,37.29,45.28,66.58,45.28,19.98,0,38.62-7.99,51.94-22.64,11.99,6.66,35.95,18.64,61.26,18.64h9.32c25.3-2.66,35.95-13.32,41.28-19.98,1.33-1.33,1.33-2.66,2.66-4,5.33,1.33,11.99,2.66,19.98,2.66,13.32,0,26.63-4,39.95-14.65,13.32-9.32,22.64-22.64,22.64-34.62,4,1.33,9.32,1.33,13.32,1.33,13.32,0,27.97-4,41.28-13.32,25.3-15.98,29.3-38.62,29.3-51.94,4,1.33,9.32,1.33,13.32,1.33,13.32,0,26.63-4,38.62-11.99,15.98-10.65,25.3-25.3,26.63-42.61,1.33-11.99-2.66-23.97-7.99-34.62,42.61-18.64,138.5-53.27,253.02-79.9,0-9.32-1.33-17.31-4-26.63-137.16,29.3-239.7,73.24-265.01,85.23h0ZM957.48,677.83c-26.63,0-47.94-21.31-49.27-47.94,0-2.66,0-7.99-5.33-7.99-2.66,0-4,1.33-6.66,2.66-5.33,5.33-13.32,10.65-23.97,10.65-5.33,0-10.65-1.33-15.98-4-27.97-11.99-29.3-30.63-27.97-38.62,0-2.66,0-4-1.33-5.33l-1.33-1.33h-1.33c-1.33,0-2.66,0-5.33,2.66-7.99,5.33-15.98,7.99-23.97,7.99-4,0-9.32-1.33-13.32-2.66-37.29-14.65-34.62-49.27-31.96-59.93,0-2.66,0-4-1.33-5.33l-2.66-2.66-2.66,2.66c-7.99,6.66-17.31,10.65-26.63,10.65-21.31,0-38.62-17.31-38.62-38.62s17.31-38.62,38.62-38.62c18.64,0,35.95,14.65,38.62,33.29l1.33,10.65,5.33-9.32c0-1.33,15.98-25.3,45.28-23.97,5.33,0,10.65,1.33,17.31,2.66,22.64,6.66,26.63,27.97,26.63,35.95,0,5.33,4,5.33,4,5.33,1.33,0,4-1.33,4-2.66,4-4,13.32-11.99,27.97-11.99,6.66,0,13.32,1.33,21.31,5.33,35.95,15.98,19.98,61.26,19.98,62.59-2.66,7.99-4,10.65,0,13.32h2.66c1.33,0,4,0,6.66-1.33,5.33-1.33,11.99-4,18.64-4,26.63,0,49.27,22.64,49.27,49.27,1.33,29.3-21.31,50.6-47.94,50.6h0Z"/>
  </g>
</svg>