<?xml version="1.0" encoding="UTF-8"?>
<svg id="Capa_2" xmlns="http://www.w3.org/2000/svg" xmlns:xlink="http://www.w3.org/1999/xlink" viewBox="0 0 623.84 388.84">
  <defs>
    <style>
      .cls-1 {
        fill: url(#Degradado_sin_nombre);
      }
    </style>
    <linearGradient id="Degradado_sin_nombre" data-name="Degradado sin nombre" x1="206.7" y1="112.9" x2="445.74" y2="112.9" gradientUnits="userSpaceOnUse">
      <stop offset="0" stop-color="#fff"/>
      <stop offset="1" stop-color="#000"/>
    </linearGradient>
  </defs>
  <g id="Capa_1-2" data-name="Capa_1">
    <g>
      <path class="cls-1" d="M289.69.1c24.57,0,49.14-.02,73.72,0,37.9.05,71.85,27.26,80.21,64.26,10.28,45.51-17.88,89.88-63.5,100.02-5.63,1.25-11.34,1.84-17.1,1.84-24.08.02-48.15.01-72.23.01-.79,0-1.59,0-2.38,0q-3.19.01-4.01,2.96c-3.4,12.4-6.83,24.8-10.19,37.21-1.05,3.88-2.71,7.43-5.24,10.56-4.64,5.73-10.64,8.78-18.04,8.81-12.48.05-24.97.03-37.45,0-4.24,0-5.73-1.92-4.69-6.05,6.22-24.65,12.47-49.29,18.72-73.94,3.08-12.18,6.17-24.36,9.25-36.54.12-.48.24-.96.39-1.43.78-2.5,1.7-3.23,4.23-3.36.99-.05,1.98-.02,2.97-.02,38.84,0,77.68,0,116.52,0,2.79,0,5.54-.21,8.21-1.08,9.62-3.15,15.43-12.62,14-22.8-1.36-9.66-9.72-17.16-19.59-17.53-1.09-.04-2.18-.05-3.27-.05-24.08-.02-48.15.08-72.23-.1-13.67-.1-27.35.38-41.01-.39-5.56-.32-11.01-1.32-16.29-3.1-15.53-5.25-23.8-16.65-23.96-33.07-.07-7.03-.03-14.06,0-21.09.02-4.09,1.2-5.23,5.38-5.23,25.86,0,51.72,0,77.58,0v.1Z"/>
      <path d="M218.92,330.35c1.03-2.25,1.17-4.74,1.67-7.12,1.67-7.94,3.21-15.9,4.81-23.85.58-2.86.62-2.91,3.43-2.92,4.46-.02,8.92-.03,13.38,0,2.89.02,3.3.5,2.73,3.36-2.01,10.09-4.05,20.17-6.08,30.26-3.49,17.36-6.95,34.72-10.46,52.08-1.03,5.09-.44,4.6-5.65,4.61-3.76.01-7.53.02-11.29,0-3.18-.02-3.43-.34-2.85-3.47.13-.68.34-1.35.1-2.05-.84-.14-1.21.55-1.69.99-12.14,11.14-37.44,9.09-43.53-13.14-3.69-13.47-1.65-26.29,7.24-37.3,8.57-10.62,20.1-13.95,33.32-11.27,5.49,1.11,10.06,4.07,13.5,8.61.35.46.6,1.04,1.38,1.23ZM200.61,337.94c-2.01-.05-4.39.51-6.65,1.63-7.34,3.64-11.98,12.76-10.59,20.83.87,5.08,4.3,8.75,9.18,9.68,2.25.42,4.53.39,6.77-.16,10.88-2.68,15.17-14.44,13.92-21.72-1.12-6.55-5.51-10.23-12.63-10.26Z"/>
      <path d="M324.7,381.25c-.7-.07-1.05.48-1.46.86-12.07,11.32-38.09,9.43-43.94-14-3.01-12.06-1.26-23.64,5.76-34.09,7.59-11.3,21.31-16.62,34.6-13.66,5.59,1.25,10.3,4,13.86,8.57.36.46.77.88,1.18,1.3.04.04.18,0,.57-.02.83-4.04,1.68-8.16,2.51-12.28,1.25-6.21,2.46-12.42,3.71-18.62.55-2.73.7-2.85,3.51-2.87,4.46-.02,8.91-.03,13.37,0,2.98.02,3.25.31,2.64,3.36-2.44,12.32-4.92,24.63-7.39,36.95-3.07,15.32-6.15,30.64-9.23,45.96-.14.68-.32,1.35-.42,2.03-.21,1.41-1,2.03-2.43,2.02-4.95-.03-9.9.03-14.86-.03-1.98-.02-2.36-.6-2.13-2.59.1-.88.19-1.76.27-2.64,0-.08-.08-.18-.12-.27ZM299.64,355.89c-.18,8.05,3.17,12.83,9.04,14.13,2.24.5,4.53.48,6.77-.04,11.25-2.62,16.22-15.27,13.71-23.84-1.37-4.67-5.07-7.62-9.91-8.11-4.33-.44-8.25.63-11.69,3.28-5.2,4-7.64,9.41-7.92,14.58Z"/>
      <path d="M38.77,296.5c5.64,0,11.29-.01,16.93,0,3.19.01,6.31.56,9.38,1.38,12.47,3.34,19.61,12.54,19.9,25.55.37,16.64-9.81,28.79-26.72,31.93-4.89.91-9.83,1.09-14.79,1.01-4.45-.07-8.91-.15-13.36-.22-2.54-.04-2.57-.04-3.08,2.49-1.43,7.17-2.81,14.36-4.27,21.53-.93,4.56-2.75,6.01-7.33,6.05-4.06.03-8.12.06-12.18.05-3.2-.01-3.63-.53-3-3.72,2.61-13.09,5.24-26.17,7.86-39.25,2.88-14.34,5.75-28.69,8.63-43.03.12-.58.27-1.16.34-1.74.2-1.6,1.14-2.19,2.67-2.08.59.04,1.19,0,1.78,0,5.74,0,11.48,0,17.23,0v.06ZM41.68,337.54s0-.03,0-.05c2.37,0,4.75.03,7.12,0,2.79-.05,5.52-.52,8.05-1.75,4.66-2.27,7.05-7.19,6.2-12.66-.69-4.44-3.69-6.98-9.18-7.78-.59-.09-1.18-.18-1.77-.18-4.85-.04-9.69-.04-14.54-.11-1.15-.02-1.84.29-2.08,1.51-1.25,6.4-2.54,12.79-3.84,19.18-.31,1.51.33,1.9,1.73,1.87,2.77-.07,5.54-.02,8.31-.02Z"/>
      <path d="M593.37,380.16c-1.32.25-1.98,1.05-2.8,1.58-8.67,5.66-17.94,6.56-27.53,3-8.29-3.08-13.14-9.37-14.7-17.98-3.86-21.3,11.85-43.17,33.21-46.32,7.99-1.18,15.41.02,21.46,5.99.18.18.51.21.94.38.26-1.13.5-2.16.74-3.19.52-2.29.68-2.49,2.89-2.51,4.55-.04,9.11-.05,13.66,0,2.47.03,2.91.62,2.41,3.15-1.19,6.12-2.42,12.22-3.64,18.33-2.69,13.48-5.39,26.95-8.08,40.43-.61,3.07-.67,3.15-3.87,3.16-4.16.01-8.32.02-12.48,0-2.87-.02-3.14-.34-2.74-3.08.13-.87.3-1.73.51-2.92ZM570.11,356.57c-.1,6.62,3.07,11.09,8.82,12.27,2.14.44,4.32.39,6.47-.13,7.85-1.92,13.47-9.62,13.46-18.42-.01-8.5-6.57-13.71-14.87-11.81-8,1.83-13.74,9.32-13.88,18.09Z"/>
      <path d="M523,331.62c1.17-.34,1.43-1.28,1.91-1.97,7.29-10.48,14.59-20.95,21.8-31.49,1.14-1.66,2.37-2.33,4.39-2.29,6.53.11,13.07.04,19.61.04.59,0,1.2-.05,1.78.05,1.46.24,2.02,1.28,1.3,2.59-.47.86-1.15,1.6-1.76,2.39-12.96,16.75-25.92,33.51-38.91,50.25-1.18,1.52-1.97,3.07-2.33,5.01-1.58,8.56-3.32,17.08-5.01,25.62-.77,3.88-2.06,4.94-6.07,4.96-4.46.02-8.91.02-13.37,0-3.28-.01-3.72-.51-3.09-3.64,1.83-9.01,3.65-18.03,5.57-27.02.45-2.12.31-4.02-.5-6.05-6.53-16.35-12.98-32.73-19.45-49.1-.25-.64-.52-1.29-.74-1.94-.76-2.21-.3-3.02,1.97-3.04,6.24-.06,12.48.04,18.72-.06,1.97-.03,2.51,1.12,3.02,2.61,2.45,7.21,4.94,14.41,7.38,21.62,1.29,3.8,2.52,7.62,3.8,11.47Z"/>
      <path d="M430.25,350.58c.18,21.39-15.81,37.75-37.22,38.13-4.58.08-9.09-.29-13.5-1.63-11.91-3.61-19.58-12.79-20.8-25.14-.64-6.49-.02-12.88,2.46-18.96,5.13-12.55,14.58-19.93,27.76-22.58,6.38-1.28,12.81-1.11,19.14.54,12.92,3.37,21.15,13.38,21.99,26.67.06.99.12,1.98.18,2.96ZM392.6,369.13c1.38-.01,2.76-.05,4.12-.37,11.03-2.6,14.33-13.75,12.04-21.45-1.1-3.69-3.6-6.07-7.2-7.28-3.17-1.06-6.43-1.14-9.66-.38-10.28,2.43-14.13,12.74-12.02,20.97,1.02,3.96,3.64,6.46,7.47,7.76,1.7.58,3.46.82,5.26.75Z"/>
      <path d="M128.65,359.54c-7.03,0-14.07-.01-21.1,0-2.32,0-2.58.34-2.07,2.6.94,4.14,3.61,6.75,7.55,8.05,5.17,1.71,10.34,1.38,15.48-.22.66-.21,1.3-.47,1.95-.73q4.18-1.71,7.4,1.63c2.2,2.28,4.44,4.53,6.61,6.83,1.77,1.88,1.68,2.42-.53,3.87-9.09,5.93-19.06,7.99-29.78,6.79-4.16-.47-8.19-1.47-11.96-3.33-9.64-4.76-14.6-12.78-15.71-23.25-.71-6.69.07-13.27,2.73-19.5,5.83-13.66,16.42-20.94,31-22.51,4.93-.53,9.88-.24,14.74,1.04,13.69,3.61,20.42,14.36,19.46,28.05-.17,2.36-.6,4.71-1.04,7.04-.65,3.45-.77,3.51-4.23,3.51-6.84,0-13.67,0-20.51,0,0,.03,0,.07,0,.1ZM107.27,345.18c4.07,0,7.5,0,10.93,0,5.53,0,11.06.05,16.59.03,1.94,0,2.01-.16,1.71-2.07-.69-4.47-3.28-7.39-7.6-8.45-3.83-.95-7.64-.81-11.39.42-4.81,1.57-7.92,4.89-10.24,10.07Z"/>
      <path d="M463.12,319.61c7.06-.08,13.72,1.67,20.17,4.37,2.44,1.02,2.64,1.48,1.64,3.79-1.52,3.55-3.09,7.07-4.7,10.58-.99,2.15-1.34,2.27-3.68,1.27-3.2-1.37-6.48-2.44-9.92-2.99-2.07-.33-4.15-.44-6.21-.03-1.36.27-2.77.68-3.06,2.37-.27,1.52.69,2.43,1.81,3.13,1.51.95,3.07,1.81,4.64,2.65,3.23,1.72,6.55,3.29,9.72,5.12,4.81,2.78,8.44,6.61,9.61,12.23,2.46,11.75-1.96,20.92-13.47,24.55-13.36,4.21-26.03,2.04-37.83-5.37-1.94-1.22-2.03-1.65-.94-3.61,2.01-3.64,4.06-7.25,6.16-10.84,1.1-1.88,1.56-1.98,3.57-.84,3.98,2.27,8.08,4.19,12.59,5.13,2.45.51,4.92.63,7.38.21,1.48-.25,2.96-.75,3.29-2.53.33-1.75-.72-2.83-2.08-3.58-3.29-1.82-6.61-3.59-9.94-5.34-2.99-1.57-5.77-3.42-8.26-5.74-8.56-7.96-9.14-26.62,6.96-32.58,1.86-.69,3.78-1.14,5.73-1.51,2.26-.43,4.53-.4,6.81-.44Z"/>
      <path d="M250.43,386.77c-2.38,0-4.75.04-7.13-.01-2.41-.06-2.82-.49-2.37-2.89.98-5.25,2.06-10.47,3.12-15.71,2.52-12.5,5.06-25,7.58-37.5.06-.29.1-.59.16-.88.64-2.97.67-3.02,3.67-3.03,4.65-.02,9.31-.03,13.96,0,2.85.02,3.13.35,2.57,3.11-3.63,18.13-7.27,36.25-10.93,54.37-.46,2.29-.74,2.49-3.22,2.52-2.47.03-4.95,0-7.43,0Z"/>
      <path d="M255.01,307.45c.01-9.24,7.59-15.33,16.53-13.28,4.14.95,6.66,3.89,6.97,8.14.65,9-5.58,15.52-14.31,14.97-5.89-.37-9.2-3.91-9.19-9.83Z"/>
    </g>
  </g>
</svg>