<?xml version="1.0" encoding="UTF-8"?>
<svg id="Capa_2" xmlns="http://www.w3.org/2000/svg" viewBox="0 0 482.21 271.23">
  <defs>
    <style>
      .cls-1 {
        fill: #010000;
      }

      .cls-2 {
        stroke: #fff;
        stroke-miterlimit: 10;
      }
    </style>
  </defs>
  <g id="Capa_1-2" data-name="Capa_1">
    <g>
      <path class="cls-2" d="M387.5,133.13c9.85-5.69,17.3-13.44,20.8-24.5,4.27-13.5,8.86-26.88,15.07-39.64,1.6-3.29,3.15-6.63,5.12-9.7,5.37-8.35,17.46-10.15,25.35-4.03,3.8,2.95,4.86,6.29,2.84,10.91-6.34,14.48-13.07,28.8-17.77,43.95-1.2,3.87-2.02,7.72-1.92,11.76.04,1.58-.71,3.58,1.23,4.46,1.75.79,3.14-.51,4.46-1.53,5.85-4.54,10.57-10.11,14.63-16.26.73-1.11,1.32-2.34,2.15-3.37,2.47-3.04,5.76-3.76,8.87-1.61,3.26,2.25,2.39,5.31.44,8.3-6.85,10.48-14.41,20.41-23.05,29.48-5.31,5.58-11.07,10.63-18.39,13.49-13.68,5.34-22.59,0-24.24-14.51-.09-.82-.18-1.64-.3-2.73-2.89.4-4.79,2.32-6.92,3.76-12.47,8.46-25.83,14.46-41.15,15.24-8.66.44-17.21.68-23.29-9.1-3.7,13.43-7.05,25.51-10.36,37.6-.97,3.53-1.71,7.12-2.78,10.62-1.62,5.24-5.3,7.29-10.72,6.2-12.08-2.43-17.88-10.98-15.04-23.11,2.35-10.04,5.43-19.91,8.11-29.87.54-2.03,1.78-3.96,1.15-6.9-6.62,3.88-13.27,7.12-20.09,10-9.92,4.18-20.28,5.02-30.87,4.54-5.68-.25-9.2-4.13-13.2-7.99-1.92,2.39-2.03,5.11-2.68,7.54-3.49,13.02-7.81,25.81-10.03,39.16-.76,4.59-4.54,7.45-9.56,6.81-6.68-.85-12.44-3.81-16.04-9.82-1.96-3.26-2.09-6.78-1.2-10.59,2.74-11.67,5.98-23.2,9.39-34.69.28-.94.76-1.87.11-2.93-2.2-.2-2.98,1.8-4.26,2.92-5.74,5.01-11.87,9.25-19.81,9.63-6.61.32-11.79-2.07-14.37-8.51-1.54-3.85-2.91-4.56-6.22-1.24-5.01,5.04-11.38,8.14-18.38,9.43-12.13,2.24-23.12-6.14-25.52-19.04-2.29-12.3-.24-24.26,3.16-36,4.12-14.19,9.99-27.61,20.18-38.63,7.38-7.98,16-14.11,27.18-15.57,11.24-1.46,17.8,2.44,22.11,13.71,2.94-5.16,6.76-8.48,12.52-8.9,3.2-.23,6.34-.23,9.39.76,7.16,2.33,9.75,6.82,7.11,13.76-3.91,10.25-8.53,20.23-12.57,30.44-2.75,6.95-5.37,14-6.61,21.42-.46,2.76-1.44,6.39,1.09,7.93,2.68,1.63,4.66-1.85,6.53-3.46,5.93-5.09,9.98-11.49,12.41-18.98,4.68-14.42,10.72-28.32,16.21-42.43,4.32-11.12,18.73-12.67,25.7-6.27,3.02,2.77,4.64,1.91,7.32-.2,5.85-4.59,12.39-7.72,20.07-8.04,9.75-.41,17.43,5.16,20.15,14.5,2.41,8.23,2.14,16.61.75,24.78-2.91,17.11-9.62,32.77-19.77,46.69,2.83.03,3.52-.45,6.28-2.44,8.99-6.46,13.4-15.83,17.09-25.8,5.31-14.36,10.68-28.69,16.43-42.9,5.18-12.79,18.87-12.35,26.34-6.17,2.61,2.15,3.88,1.71,6.18-.09,5.13-4.04,10.71-7.32,17.39-8.24,12.64-1.74,21.93,5.13,24.38,18.66,2.22,12.32-.55,24.12-4.52,35.76-3.67,10.78-8.33,21.02-14.9,30.35-.43.35-.86.71-1.29,1.06.68.59,1.41.36,2.15.15ZM282.7,74.34c-.44-3.05.51-6.11-1.73-7.23-2.53-1.26-3.94,1.72-5.53,3.23-8.44,7.98-13.09,18.42-17.77,28.68-4.63,10.15-8.12,20.79-9.04,32.05-.16,1.98-.4,4.36,1.66,5.38,2.25,1.12,3.75-.92,4.94-2.41,3.52-4.43,7.14-8.81,10.2-13.55,9.24-14.33,14.55-30.16,17.28-46.16ZM180.18,73.64c0-.83,0-1.66,0-2.49.02-1.86.14-4.05-1.69-4.91-2.24-1.06-3.59,1.04-4.96,2.43-.93.94-1.81,1.96-2.58,3.04-10.49,14.55-16.8,30.85-20.09,48.38-.73,3.9-1.15,7.87-.62,11.91.56,4.27,2.4,4.03,5.18,1.88,2.57-1.98,4.1-4.81,5.91-7.36,11.27-15.83,16.69-33.78,18.85-52.87ZM342.58,130.56c.74,2.08-.78,4.66,1.37,5.75,2.41,1.22,3.81-1.22,5.38-2.6.5-.44.93-.95,1.37-1.46,8.81-10.24,14.64-22.17,19.39-34.67,3.14-8.26,5.72-16.7,6.23-25.61.11-1.86.19-4.1-1.61-4.94-1.98-.92-3.29,1.13-4.49,2.39-16.43,17.19-23.95,38.37-27.64,61.14Z"/>
      <path class="cls-2" d="M53.31,123.18c-2.51,9.81-5.04,18.76-7.01,27.83-1.01,4.65-3.49,6.88-7.96,7.57-12.53,1.92-24.29-9.39-21.67-21.68,7.14-33.52,18.48-65.66,32.99-96.69,2.09-4.48,5.55-6.79,10.61-7.01,5.51-.24,11-.55,16.42.64,5.68,1.25,7.23,3.99,5.12,9.44-4.93,12.73-10.02,25.4-15.02,38.1-.58,1.48-1,3.03-1.56,4.77,20.04-5.1,36.98-29.24,34.7-48.91-1.17-10.13-8.31-16.18-20.19-16.84-15.09-.84-27.13,5.85-37.38,16.08-9.67,9.65-16.13,21.09-17.48,35.03-.5,5.19-4.74,7.54-10.37,6.09-10.88-2.8-16.53-13.58-12.93-24.72,4.22-13.09,12.81-23,23.74-30.71C51.45,3.73,79.89.65,109.97,10.73c8.82,2.96,15.9,8.46,21.2,15.99,7.87,11.17,7.71,23.1,2.04,35.06-9.01,19.03-25.68,28.78-44.55,35.28-4.93,1.7-5.66,3.73-5.28,8.46,1.27,15.87,5.06,30.86,13.94,44.23,10.29,15.49,26.77,20.62,44.1,13.95,2.79-1.07,5.39-2.6,8.15-3.75,2.85-1.19,5.77-1.02,7.75,1.48,1.95,2.46,1.21,5.39-.92,7.23-15.21,13.16-31.81,23.3-53.01,21.48-16.5-1.41-27.65-11.15-35.91-24.73-7.12-11.71-10.96-24.53-12.5-38.1-.09-.82-.27-1.64-.48-2.44-.08-.29-.36-.53-1.19-1.69Z"/>
      <path class="cls-2" d="M461.79.5c11.01-.09,19.78,8.46,19.92,19.4.13,10.42-8.68,19.11-19.54,19.26-10.73.14-19.84-8.47-19.94-18.87-.11-10.87,8.61-19.7,19.56-19.78Z"/>
    </g>
    <path class="cls-1" d="M407.93,271c-.73.2-1.47.44-2.15-.15.43-.35.86-.71,1.29-1.06.28.4.57.81.85,1.21Z"/>
  </g>
</svg>