<?xml version="1.0" encoding="UTF-8"?>
<svg id="Capa_2" xmlns="http://www.w3.org/2000/svg" xmlns:xlink="http://www.w3.org/1999/xlink" viewBox="0 0 614.43 648.24">
  <defs>
    <style>
      .cls-1 {
        fill: url(#Degradado_sin_nombre-2);
      }

      .cls-2 {
        fill: url(#Degradado_sin_nombre-4);
      }

      .cls-3 {
        fill: url(#Degradado_sin_nombre-3);
      }

      .cls-4 {
        fill: url(#Degradado_sin_nombre);
      }

      .cls-5 {
        fill: #fefefe;
      }
    </style>
    <linearGradient id="Degradado_sin_nombre" data-name="Degradado sin nombre" x1=".13" y1="215.73" x2="214.5" y2="215.73" gradientUnits="userSpaceOnUse">
      <stop offset="0" stop-color="#fff"/>
      <stop offset="1" stop-color="#000"/>
    </linearGradient>
    <linearGradient id="Degradado_sin_nombre-2" data-name="Degradado sin nombre" x1="401.15" y1="109.62" x2="614.33" y2="109.62" xlink:href="#Degradado_sin_nombre"/>
    <linearGradient id="Degradado_sin_nombre-3" data-name="Degradado sin nombre" x1="130.97" y1="162.83" x2="481.53" y2="162.83" xlink:href="#Degradado_sin_nombre"/>
    <linearGradient id="Degradado_sin_nombre-4" data-name="Degradado sin nombre" x1="447.62" y1="450.89" x2="552.19" y2="450.89" xlink:href="#Degradado_sin_nombre"/>
  </defs>
  <g id="Capa_1-2" data-name="Capa_1">
    <g>
      <path class="cls-5" d="M486.71,648.14h-95.72c6.93-3.15,11.97-7.68,11.97-16.05-.01-74.21-.01-148.43.01-222.64,0-3.71-1.05-7.22-2.94-10.16-4.1-6.38-11.63-8.2-20.2-5.69-6.09,1.78-9.89,9.07-9.88,15.35.15,73.21.15,146.43.01,219.64-.02,8.53,2.19,15.36,10.05,19.55h-52.85c8.49-3.1,11.85-9.86,11.89-18.21.17-35.77.25-71.54-.14-107.31-.05-4.58.75-10.08-3.09-14.03-4.89-5.04-19.05-6.34-23.74-1.26-5.03,5.44-9.51,4.07-14.87,1.53-11.82-5.61-24.52-8.35-37.29-6.27-24.79,4.05-42.42,19.01-53.75,40.82-8.04,15.47-8.73,32.44-4.57,49.34,5.51,22.36,17.53,39.82,38.86,49.99,5.42,2.58,11.37,3.25,16.89,5.39H122.77c.34-.31.64-.83,1.02-.89,23.44-3.54,37.91-17.78,46.93-38.88,5.71-13.37,3.4-27.55,4.7-41.34,1.46-15.51-1.55-31.1-.77-46.68.21-4.13-.99-7.89-3.15-11.13-3.47-5.2-8.92-7.26-14.91-6.75-6.17.53-11.3,3.14-12.98,9.96-1.14,4.61-1.84,9.31-1.86,14.03-.1,19.79-.21,39.58.02,59.37.13,11.22-4.81,19.19-13.67,25.6-13.65,9.87-33.37,2.08-39.27-7.97-3.71-6.31-4.78-13.18-4.86-20.13-.26-22.12-.12-44.24-.07-66.35,0-2.36-.12-4.6-1.53-6.58-3.98-5.61-11.94-7.53-20.56-4.96-6.31,1.88-9.84,6.9-9.85,14.16-.02,20.95-.05,41.91.02,62.86.02,4.93.03,9.81.82,14.78,3.18,19.86,13.85,34.12,31.06,43.95,6.25,3.57,13.28,4.65,19.93,6.95-33.24,0-66.47-.07-99.71.1-3.42.02-4.09-.67-4.08-4.09.11-158.1.09-316.2.09-474.3,1.79.97,1.02,2.7.94,4.01-.47,7.15.94,14.17,2.29,21.02,4.81,24.54,14.11,47.32,28.67,67.8,12.77,17.96,29.14,31.72,48.44,42.25,17.33,9.45,35.81,15.41,55.17,18.5,9.21,1.47,18.7,2.42,27.96,1.91,6.98-.39,14.05-.51,21.07-1.53,10.12-1.48,20.06-3.35,29.83-6.63-3.57-5.51-3.58-5.7-9.04-5.48-7.13.29-13.97-1.1-20.77-2.97-18.34-5.03-33.8-15.2-47.87-27.54-19.31-16.94-30.84-38.68-36.86-63.39-5.47-22.44-6.28-45.43-7.07-68.39-.13-3.79-.88-7.39-1.87-11.04-6.05-22.17-29.75-35.95-52.81-31.53-16.45,3.15-32.2,16.57-36.32,33.74-.83,3.46.6,7.22-1.76,10.32C.13,102.15.21,53.43,0,4.71-.02.4,1.2,0,4.98,0c143.96.11,287.91.09,431.87.09-1.16,1.89-3.01.94-4.5.95-9.59,0-18.73,2.31-27.73,5.28-1.35.45-3.63.78-3.46,2.95.18,2.19,2.55,1.98,3.91,2.3,4.58,1.07,9.32,1.49,13.91,2.55,25.47,5.91,47.82,17.17,65.55,37.07,13.18,14.79,22.3,31.66,28.05,50.41,6.6,21.53,7.75,43.82,7.95,66.15.05,5.31.42,10.65,1.52,15.69,5.17,23.66,26.14,38.33,51.41,35.34,19.75-2.34,35.46-17.69,39.11-37.1.68-3.6-.62-7.55,1.76-10.82,0,157.6-.02,315.2.09,472.8,0,3.74-.84,4.64-4.58,4.6-18.11-.23-36.23-.1-54.34-.1,4.95-2.14,9.76-4.58,10.7-10.59.56-3.54,1.35-7.04,1.34-10.73-.13-33.78-.04-67.57-.12-101.35-.01-4.26-.47-8.54-1.04-12.77-.37-2.74-2.23-4.77-4.53-6.19-6.43-3.98-18.25-2.75-23.56,2.7-2.36,2.42-4.9,2.76-7.62,1.66-13.16-5.33-26.61-7.89-40.93-6.63-20.36,1.79-36.16,11.13-47.95,27.48-11.62,16.11-15.74,34.1-12.97,53.84,3.49,24.89,15.8,43.52,37.93,55.64,6.31,3.46,13.3,4.65,19.96,6.94ZM130.97,255.4c4.88,7.75,9.59,13.63,15.52,18.7,10.24,8.75,21.6,15.55,33.99,20.56,19.79,8.01,40.32,9,61.06,4.9,14.57-2.88,27.99-9.1,39.04-18.92,15.82-14.06,28.46-31.02,40.77-48.22,20.73-28.95,36.09-61.06,54.23-91.53,12.86-21.59,27.24-42.01,46.96-58.07,16.35-13.32,34.76-18.5,55.59-14.09,1.12.24,2.51.73,3.19-.35.68-1.08-.4-2.26-1.01-3.11-4.45-6.24-9.67-11.96-15.64-16.6-25.29-19.69-53.73-28.35-85.88-23.69-13.24,1.92-25.33,6.49-36.64,13.48-12.15,7.5-20.9,18.45-30.08,29.06-16.2,18.72-29.67,39.28-41.82,60.76-12.13,21.44-24.25,42.87-38.13,63.24-12.88,18.91-27.96,35.95-44.56,51.61-4.75,4.48-10.44,7.88-16.46,10.62-12.65,5.75-25.59,5.83-40.12,1.65ZM470.79,491.45c13.81.01,23.23-5.77,30.7-14.58,7.42-8.75,14.28-17.99,21-27.3,6.64-9.19,13.34-17.8,25.79-19.34,3.01-.37,4.45-3.3,3.74-6.89-1.13-5.7-5.62-7.96-10.07-9.78-15.28-6.25-28.7-3.46-40.49,8.47-8.28,8.37-14.79,18.04-21.66,27.45-7.28,9.97-15.03,18.95-27.85,21.91-4.89,1.13-5.87,7.35-1.69,10.8,6.41,5.28,13.44,9.49,20.54,9.25Z"/>
      <path class="cls-4" d="M.13,150.87c2.36-3.1.93-6.86,1.76-10.32,4.12-17.16,19.86-30.58,36.32-33.74,23.06-4.42,46.77,9.37,52.81,31.53.99,3.64,1.74,7.24,1.87,11.04.79,22.96,1.6,45.95,7.07,68.39,6.02,24.71,17.56,46.45,36.86,63.39,14.06,12.34,29.53,22.51,47.87,27.54,6.8,1.87,13.64,3.26,20.77,2.97,5.46-.22,5.47-.04,9.04,5.48-9.78,3.28-19.71,5.15-29.83,6.63-7.02,1.02-14.09,1.14-21.07,1.53-9.27.52-18.75-.44-27.96-1.91-19.36-3.09-37.84-9.04-55.17-18.5-19.3-10.53-35.67-24.29-48.44-42.25-14.56-20.48-23.86-43.25-28.67-67.8-1.34-6.85-2.76-13.87-2.29-21.02.09-1.31.85-3.03-.94-4.01v-18.97Z"/>
      <path class="cls-1" d="M614.33,170.84c-2.38,3.28-1.08,7.22-1.76,10.82-3.65,19.41-19.36,34.76-39.11,37.1-25.27,3-46.23-11.68-51.41-35.34-1.1-5.04-1.47-10.38-1.52-15.69-.2-22.33-1.35-44.62-7.95-66.15-5.75-18.75-14.88-35.62-28.05-50.41-17.73-19.9-40.09-31.16-65.55-37.07-4.59-1.06-9.32-1.48-13.91-2.55-1.36-.32-3.73-.11-3.91-2.3-.17-2.16,2.1-2.5,3.46-2.95,9-2.96,18.14-5.27,27.73-5.28,1.49,0,3.35.94,4.5-.95h23.93c.46,1.28,1.58.99,2.51.98,10.36-.06,20.5,1.7,30.53,4.04,34.75,8.13,63.92,25.62,85.86,53.88,19,24.48,28.21,53.16,32.85,83.56.62,4.09-.48,8.48,1.8,12.31v15.98Z"/>
      <path d="M257.38,648.14c-5.52-2.14-11.47-2.8-16.89-5.39-21.34-10.17-33.35-27.63-38.86-49.99-4.17-16.9-3.47-33.87,4.57-49.34,11.33-21.81,28.95-36.77,53.75-40.82,12.76-2.09,25.47.66,37.29,6.27,5.36,2.54,9.84,3.91,14.87-1.53,4.7-5.08,18.85-3.78,23.74,1.26,3.84,3.95,3.04,9.45,3.09,14.03.39,35.77.31,71.54.14,107.31-.04,8.34-3.4,15.1-11.89,18.21h-9.97c-3.26-1.77-6.14-3.91-8.07-7.23-1-1.73-2.47-3.1-4.71-1.78-7.23,4.25-15.26,6.39-23.11,9.01h-23.93ZM306.2,575.26c.78-7.55-1.99-14.59-5.75-21.45-11.52-20.99-38.99-25.11-55.79-8.25-16.62,16.68-16.77,46.48,2.58,62.05,9.43,7.58,19.85,9.52,31.41,6.85,17.28-3.98,28.83-23.01,27.55-39.19Z"/>
      <path d="M486.71,648.14c-6.66-2.29-13.65-3.48-19.96-6.94-22.13-12.12-34.43-30.75-37.93-55.64-2.77-19.73,1.35-37.73,12.97-53.84,11.79-16.34,27.59-25.69,47.95-27.48,14.32-1.26,27.77,1.3,40.93,6.63,2.72,1.1,5.25.77,7.62-1.66,5.31-5.45,17.13-6.68,23.56-2.7,2.3,1.42,4.16,3.46,4.53,6.19.56,4.23,1.03,8.51,1.04,12.77.08,33.78,0,67.57.12,101.35.01,3.69-.78,7.18-1.34,10.73-.94,6.01-5.76,8.45-10.7,10.59h-9.97c-3.2-1.6-6.19-3.65-7.82-6.82-1.37-2.67-3.71-2.84-5.32-1.94-7.79,4.34-16.42,6.1-24.76,8.76h-20.94ZM497.84,535.17c-2.31.15-4.69-.02-6.91.52-19.01,4.6-29.4,20.58-30,38.11-.57,16.53,8,29.13,20.38,39.05,4.48,3.59,10.12,6.15,16.34,5.3,9.11-1.25,17.33-4.8,23.8-11.39,11.2-11.41,15.54-25.17,12.04-40.9-3.74-16.82-17.5-31.25-35.65-30.69Z"/>
      <path d="M103.83,648.14c-6.65-2.29-13.68-3.38-19.93-6.95-17.21-9.84-27.88-24.09-31.06-43.95-.8-4.97-.81-9.85-.82-14.78-.07-20.95-.05-41.91-.02-62.86,0-7.26,3.54-12.28,9.85-14.16,8.62-2.57,16.58-.66,20.56,4.96,1.4,1.98,1.53,4.22,1.53,6.58-.05,22.12-.2,44.24.07,66.35.08,6.95,1.15,13.82,4.86,20.13,5.91,10.06,25.63,17.85,39.27,7.97,8.86-6.41,13.8-14.38,13.67-25.6-.23-19.79-.12-39.58-.02-59.37.02-4.72.73-9.41,1.86-14.03,1.68-6.82,6.8-9.43,12.98-9.96,5.99-.51,11.45,1.55,14.91,6.75,2.16,3.24,3.35,6.99,3.15,11.13-.78,15.58,2.23,31.17.77,46.68-1.3,13.78,1.01,27.97-4.7,41.34-9.02,21.11-23.5,35.34-46.93,38.88-.38.06-.68.58-1.02.89h-18.94Z"/>
      <path d="M380.02,648.14c-7.86-4.2-10.07-11.02-10.05-19.55.14-73.21.13-146.43-.01-219.64-.01-6.28,3.79-13.57,9.88-15.35,8.57-2.51,16.1-.69,20.2,5.69,1.89,2.94,2.94,6.45,2.94,10.16-.03,74.21-.02,148.43-.01,222.64,0,8.37-5.04,12.9-11.97,16.05h-10.97Z"/>
      <path class="cls-5" d="M614.33,154.87c-2.28-3.83-1.18-8.22-1.8-12.31-4.64-30.4-13.85-59.08-32.85-83.56-21.94-28.26-51.11-45.75-85.86-53.88-10.03-2.34-20.16-4.1-30.53-4.04-.93,0-2.05.3-2.51-.98,50.02,0,100.04.03,150.06-.08,2.97,0,3.58.6,3.57,3.58-.12,50.43-.08,100.85-.08,151.28Z"/>
      <path class="cls-3" d="M130.97,255.4c14.53,4.18,27.48,4.1,40.12-1.65,6.02-2.74,11.71-6.13,16.46-10.62,16.6-15.67,31.68-32.7,44.56-51.61,13.88-20.37,26.01-41.81,38.13-63.24,12.15-21.48,25.62-42.03,41.82-60.76,9.18-10.61,17.93-21.56,30.08-29.06,11.31-6.99,23.4-11.56,36.64-13.48,32.15-4.66,60.59,4,85.88,23.69,5.96,4.64,11.18,10.36,15.64,16.6.61.85,1.69,2.03,1.01,3.11-.69,1.08-2.08.59-3.19.35-20.83-4.41-39.24.77-55.59,14.09-19.71,16.06-34.1,36.48-46.96,58.07-18.14,30.47-33.5,62.58-54.23,91.53-12.31,17.19-24.95,34.15-40.77,48.22-11.05,9.82-24.46,16.04-39.04,18.92-20.74,4.11-41.27,3.12-61.06-4.9-12.39-5.02-23.76-11.81-33.99-20.56-5.93-5.07-10.64-10.95-15.52-18.7Z"/>
      <path class="cls-2" d="M470.79,491.45c-7.1.23-14.13-3.98-20.54-9.25-4.18-3.44-3.2-9.67,1.69-10.8,12.82-2.96,20.56-11.94,27.85-21.91,6.87-9.41,13.38-19.08,21.66-27.45,11.79-11.93,25.21-14.72,40.49-8.47,4.45,1.82,8.94,4.07,10.07,9.78.71,3.59-.73,6.51-3.74,6.89-12.45,1.54-19.15,10.15-25.79,19.34-6.72,9.31-13.58,18.55-21,27.3-7.48,8.81-16.89,14.59-30.7,14.58Z"/>
      <path class="cls-5" d="M306.2,575.26c1.28,16.18-10.27,35.21-27.55,39.19-11.56,2.67-21.99.73-31.41-6.85-19.36-15.57-19.21-45.37-2.58-62.05,16.8-16.85,44.27-12.74,55.79,8.25,3.76,6.86,6.54,13.9,5.75,21.45Z"/>
      <path class="cls-5" d="M497.84,535.17c18.16-.56,31.91,13.87,35.65,30.69,3.5,15.73-.84,29.49-12.04,40.9-6.47,6.59-14.68,10.14-23.8,11.39-6.23.85-11.86-1.71-16.34-5.3-12.38-9.92-20.95-22.52-20.38-39.05.6-17.54,10.99-33.51,30-38.11,2.21-.54,4.6-.36,6.91-.52Z"/>
    </g>
  </g>
</svg>